<svg xmlns="http://www.w3.org/2000/svg" viewBox="0 0 420 280"><defs><radialGradient id="bg"><stop stop-color="#f6d66b" stop-opacity=".16"/><stop offset="1" stop-color="#f6d66b" stop-opacity=".03"/></radialGradient></defs><path fill="#191b23" d="M0 0h420v280H0z"/><path fill="url(#bg)" d="M0 0h420v280H0z"/><circle cx="0" cy="0" r="1" fill="#f6d66b" opacity=".15"/><circle cx="73" cy="47" r="1" fill="#f6d66b" opacity=".15"/><circle cx="146" cy="94" r="1" fill="#f6d66b" opacity=".15"/><circle cx="219" cy="141" r="1" fill="#f6d66b" opacity=".15"/><circle cx="292" cy="188" r="1" fill="#f6d66b" opacity=".15"/><circle cx="365" cy="235" r="1" fill="#f6d66b" opacity=".15"/><circle cx="18" cy="2" r="1" fill="#f6d66b" opacity=".15"/><circle cx="91" cy="49" r="1" fill="#f6d66b" opacity=".15"/><circle cx="164" cy="96" r="1" fill="#f6d66b" opacity=".15"/><circle cx="237" cy="143" r="1" fill="#f6d66b" opacity=".15"/><circle cx="310" cy="190" r="1" fill="#f6d66b" opacity=".15"/><circle cx="383" cy="237" r="1" fill="#f6d66b" opacity=".15"/><circle cx="36" cy="4" r="1" fill="#f6d66b" opacity=".15"/><circle cx="109" cy="51" r="1" fill="#f6d66b" opacity=".15"/><circle cx="182" cy="98" r="1" fill="#f6d66b" opacity=".15"/><circle cx="255" cy="145" r="1" fill="#f6d66b" opacity=".15"/><circle cx="328" cy="192" r="1" fill="#f6d66b" opacity=".15"/><circle cx="401" cy="239" r="1" fill="#f6d66b" opacity=".15"/><circle cx="54" cy="6" r="1" fill="#f6d66b" opacity=".15"/><circle cx="127" cy="53" r="1" fill="#f6d66b" opacity=".15"/><circle cx="200" cy="100" r="1" fill="#f6d66b" opacity=".15"/><circle cx="273" cy="147" r="1" fill="#f6d66b" opacity=".15"/><circle cx="346" cy="194" r="1" fill="#f6d66b" opacity=".15"/><circle cx="419" cy="241" r="1" fill="#f6d66b" opacity=".15"/><circle cx="72" cy="8" r="1" fill="#f6d66b" opacity=".15"/><path d="M35 50H130V100H70V200H140V240M185 35V85H260V40H375V100H315V150H375V245H290V205H215V245" fill="none" stroke="#b29aeb" stroke-width="7" stroke-linejoin="round"/><path d="M180 145L206 126A34 34 0 1 0 206 164Z" fill="#f6d66b"/><circle cx="235" cy="145" r="3" fill="#f4e6ba"/><circle cx="263" cy="145" r="3" fill="#f4e6ba"/><circle cx="291" cy="145" r="3" fill="#f4e6ba"/><circle cx="319" cy="145" r="3" fill="#f4e6ba"/><circle cx="347" cy="145" r="3" fill="#f4e6ba"/></svg>