<svg xmlns="http://www.w3.org/2000/svg" viewBox="0 0 420 280"><defs><radialGradient id="bg"><stop stop-color="#b7a0ff" stop-opacity=".16"/><stop offset="1" stop-color="#b7a0ff" stop-opacity=".03"/></radialGradient></defs><path fill="#191b23" d="M0 0h420v280H0z"/><path fill="url(#bg)" d="M0 0h420v280H0z"/><circle cx="0" cy="0" r="1" fill="#b7a0ff" opacity=".15"/><circle cx="73" cy="47" r="1" fill="#b7a0ff" opacity=".15"/><circle cx="146" cy="94" r="1" fill="#b7a0ff" opacity=".15"/><circle cx="219" cy="141" r="1" fill="#b7a0ff" opacity=".15"/><circle cx="292" cy="188" r="1" fill="#b7a0ff" opacity=".15"/><circle cx="365" cy="235" r="1" fill="#b7a0ff" opacity=".15"/><circle cx="18" cy="2" r="1" fill="#b7a0ff" opacity=".15"/><circle cx="91" cy="49" r="1" fill="#b7a0ff" opacity=".15"/><circle cx="164" cy="96" r="1" fill="#b7a0ff" opacity=".15"/><circle cx="237" cy="143" r="1" fill="#b7a0ff" opacity=".15"/><circle cx="310" cy="190" r="1" fill="#b7a0ff" opacity=".15"/><circle cx="383" cy="237" r="1" fill="#b7a0ff" opacity=".15"/><circle cx="36" cy="4" r="1" fill="#b7a0ff" opacity=".15"/><circle cx="109" cy="51" r="1" fill="#b7a0ff" opacity=".15"/><circle cx="182" cy="98" r="1" fill="#b7a0ff" opacity=".15"/><circle cx="255" cy="145" r="1" fill="#b7a0ff" opacity=".15"/><circle cx="328" cy="192" r="1" fill="#b7a0ff" opacity=".15"/><circle cx="401" cy="239" r="1" fill="#b7a0ff" opacity=".15"/><circle cx="54" cy="6" r="1" fill="#b7a0ff" opacity=".15"/><circle cx="127" cy="53" r="1" fill="#b7a0ff" opacity=".15"/><circle cx="200" cy="100" r="1" fill="#b7a0ff" opacity=".15"/><circle cx="273" cy="147" r="1" fill="#b7a0ff" opacity=".15"/><circle cx="346" cy="194" r="1" fill="#b7a0ff" opacity=".15"/><circle cx="419" cy="241" r="1" fill="#b7a0ff" opacity=".15"/><circle cx="72" cy="8" r="1" fill="#b7a0ff" opacity=".15"/><rect x="140" y="120" width="36" height="36" rx="4" fill="#b7a0ff"/><rect x="145" y="124" width="26" height="3" rx="1" fill="#ffffff40"/><rect x="180" y="120" width="36" height="36" rx="4" fill="#b7a0ff"/><rect x="185" y="124" width="26" height="3" rx="1" fill="#ffffff40"/><rect x="220" y="120" width="36" height="36" rx="4" fill="#b7a0ff"/><rect x="225" y="124" width="26" height="3" rx="1" fill="#ffffff40"/><rect x="180" y="80" width="36" height="36" rx="4" fill="#b7a0ff"/><rect x="185" y="84" width="26" height="3" rx="1" fill="#ffffff40"/><rect x="240" y="180" width="36" height="36" rx="4" fill="#dded91"/><rect x="245" y="184" width="26" height="3" rx="1" fill="#ffffff40"/><rect x="280" y="180" width="36" height="36" rx="4" fill="#dded91"/><rect x="285" y="184" width="26" height="3" rx="1" fill="#ffffff40"/><rect x="280" y="220" width="36" height="36" rx="4" fill="#dded91"/><rect x="285" y="224" width="26" height="3" rx="1" fill="#ffffff40"/><rect x="320" y="220" width="36" height="36" rx="4" fill="#dded91"/><rect x="325" y="224" width="26" height="3" rx="1" fill="#ffffff40"/><rect x="80" y="190" width="36" height="36" rx="4" fill="#ee9c82"/><rect x="85" y="194" width="26" height="3" rx="1" fill="#ffffff40"/><rect x="80" y="230" width="36" height="36" rx="4" fill="#ee9c82"/><rect x="85" y="234" width="26" height="3" rx="1" fill="#ffffff40"/><rect x="120" y="230" width="36" height="36" rx="4" fill="#ee9c82"/><rect x="125" y="234" width="26" height="3" rx="1" fill="#ffffff40"/><rect x="160" y="230" width="36" height="36" rx="4" fill="#ee9c82"/><rect x="165" y="234" width="26" height="3" rx="1" fill="#ffffff40"/><rect x="270" y="45" width="36" height="36" rx="4" fill="#81c5dd"/><rect x="275" y="49" width="26" height="3" rx="1" fill="#ffffff40"/><rect x="310" y="45" width="36" height="36" rx="4" fill="#81c5dd"/><rect x="315" y="49" width="26" height="3" rx="1" fill="#ffffff40"/><rect x="350" y="45" width="36" height="36" rx="4" fill="#81c5dd"/><rect x="355" y="49" width="26" height="3" rx="1" fill="#ffffff40"/></svg>